<svg xmlns="http://www.w3.org/2000/svg" version="1.1" xmlns:xlink="http://www.w3.org/1999/xlink" xmlns:svgjs="http://svgjs.dev/svgjs" width="2000" height="1414" viewBox="0 0 2000 1414"><g transform="matrix(1,0,0,1,-1.2121212121212466,0)"><svg viewBox="0 0 396 280" data-background-color="#ffffff" preserveAspectRatio="xMidYMid meet" height="1414" width="2000" xmlns="http://www.w3.org/2000/svg" xmlns:xlink="http://www.w3.org/1999/xlink"><g id="tight-bounds" transform="matrix(1,0,0,1,0.2400000000000091,0)"><svg viewBox="0 0 395.52 280" height="280" width="395.52"><g><svg viewBox="0 0 395.52 280" height="280" width="395.52"><g><svg viewBox="0 0 395.52 280" height="280" width="395.52"><g><svg viewBox="0 0 395.52 280" height="280" width="395.52"><g><svg viewBox="0 0 395.52 280" height="280" width="395.52"><g transform="matrix(1,0,0,1,95.65203525306555,57.50420886156945)"><svg viewBox="0 0 204.21592949386888 164.9915822768611" height="164.9915822768611" width="204.21592949386888"><g><circle r="82" cx="102.10796474693444" cy="82.49579113843055" fill="#ffffff" data-fill-palette-color="accent"></circle><svg xmlns="http://www.w3.org/2000/svg" xmlns:xlink="http://www.w3.org/1999/xlink" version="1.1" x="34.95935926186291" y="34.959359261862915" viewBox="5 28.299 90.001 43.401999999999994" enable-background="new 0 0 100 100" xml:space="preserve" height="95.07286375313527" width="134.29721097014308" class="icon-ef-0" data-fill-palette-color="quaternary" id="ef-0"><g fill="#7b68ee" data-fill-palette-color="quaternary"><path fill="none" d="M79.862 51.109c3.383 0 6.178-3.675 6.616-8.44-0.298 0.074-0.663 0.219-1.062 0.497 0 0 0.757-4.484-0.839-5.114 0 0-2.2 1.068-4.716 1.137-2.517-0.069-4.717-1.137-4.717-1.137-1.595 0.629-0.839 5.113-0.839 5.114-0.398-0.278-0.764-0.422-1.061-0.497C73.685 47.435 76.479 51.109 79.862 51.109z"></path><path fill="none" d="M50.095 51.426c4.35 0 7.942-4.725 8.507-10.852-0.383 0.096-0.853 0.282-1.364 0.639 0 0 0.972-5.767-1.079-6.575 0 0-2.829 1.374-6.063 1.462-3.235-0.088-6.064-1.462-6.064-1.462-2.051 0.809-1.079 6.575-1.079 6.575-0.512-0.357-0.981-0.543-1.364-0.639C42.152 46.701 45.745 51.426 50.095 51.426z"></path><path fill="none" d="M20.327 51.108c3.384 0 6.178-3.674 6.617-8.44-0.298 0.074-0.663 0.219-1.061 0.497 0 0 0.756-4.484-0.839-5.113 0 0-2.201 1.068-4.717 1.137-2.516-0.069-4.716-1.137-4.716-1.137-1.595 0.629-0.839 5.113-0.839 5.113-0.398-0.278-0.763-0.422-1.061-0.497C14.149 47.434 16.943 51.108 20.327 51.108z"></path><path d="M85.928 51.423c-0.041 1.823-2.74 3.292-6.065 3.292-3.326 0-6.025-1.469-6.065-3.292-2.561 0.234-4.84 1.436-6.476 3.233 2.441 2.606 3.926 6.101 3.926 9.878 0 0.817-0.075 1.572-0.218 2.272 1.142 0.072 2.385 0.072 3.688 0.072h10.291c5.519 0 9.992 0.014 9.992-5.506C95 56.166 91.016 51.889 85.928 51.423z" fill="#7b68ee" data-fill-palette-color="quaternary"></path><path d="M72.303 42.392c0.006 0.072 0.012 0.144 0.019 0.215 0.481 5.456 3.674 9.671 7.541 9.671 3.866 0 7.058-4.216 7.54-9.671 0.007-0.072 0.013-0.144 0.019-0.215 0.034-0.237 0.058-0.477 0.071-0.72 0.01-0.167 0.016-0.333 0.016-0.501 0-0.415-0.029-0.823-0.087-1.221-0.559-3.866-3.73-6.828-7.559-6.828-3.829 0-7.001 2.961-7.56 6.828-0.057 0.398-0.087 0.806-0.087 1.221 0 0.168 0.006 0.335 0.016 0.501C72.246 41.915 72.269 42.155 72.303 42.392zM75.146 38.052c0 0 2.2 1.068 4.717 1.137 2.516-0.069 4.716-1.137 4.716-1.137 1.596 0.629 0.839 5.113 0.839 5.114 0.398-0.278 0.764-0.422 1.062-0.497-0.438 4.766-3.233 8.44-6.616 8.44-3.384 0-6.178-3.675-6.616-8.44 0.297 0.074 0.662 0.219 1.061 0.497C74.307 43.165 73.551 38.681 75.146 38.052z" fill="#7b68ee" data-fill-palette-color="quaternary"></path><path d="M12.768 42.391c0.006 0.072 0.012 0.144 0.019 0.216 0.482 5.455 3.674 9.67 7.54 9.67 3.866 0 7.059-4.215 7.541-9.67 0.007-0.072 0.013-0.144 0.019-0.216 0.034-0.236 0.057-0.477 0.071-0.72 0.009-0.166 0.016-0.333 0.016-0.501 0-0.415-0.03-0.823-0.087-1.221-0.559-3.866-3.73-6.828-7.559-6.828-3.828 0-7 2.962-7.559 6.828-0.057 0.398-0.087 0.806-0.087 1.221 0 0.169 0.006 0.335 0.016 0.501C12.711 41.915 12.734 42.155 12.768 42.391zM15.61 38.052c0 0 2.201 1.068 4.716 1.137 2.516-0.069 4.717-1.137 4.717-1.137 1.595 0.629 0.839 5.113 0.839 5.113 0.398-0.278 0.763-0.422 1.061-0.497-0.439 4.766-3.233 8.44-6.617 8.44-3.383 0-6.177-3.674-6.616-8.44 0.298 0.074 0.663 0.219 1.061 0.497C14.771 43.165 14.016 38.681 15.61 38.052z" fill="#7b68ee" data-fill-palette-color="quaternary"></path><path d="M33.017 54.501c-1.552-1.704-3.675-2.882-6.071-3.216-0.017-0.002-0.036-0.002-0.053-0.006-0.141-0.019-0.282-0.035-0.426-0.049 0 0.015-0.004 0.029-0.004 0.044-0.002 0.041-0.009 0.083-0.014 0.125-0.026 0.236-0.097 0.467-0.208 0.688-0.743 1.871-3.148 5.418-4.565 7.431l-0.292-4.182c0.413-0.213 0.77-0.563 0.998-0.972 0.164-0.293 0.265-0.612 0.265-0.938 0 0-1.057 0.468-2.135 0.468-0.062 0-0.123-0.002-0.185-0.005-0.062 0.003-0.123 0.005-0.185 0.005-1.078 0-2.135-0.468-2.135-0.468 0 0.325 0.101 0.645 0.265 0.938 0.228 0.408 0.584 0.759 0.998 0.972l-0.292 4.182c-1.417-2.013-3.822-5.56-4.565-7.431-0.11-0.221-0.181-0.451-0.208-0.688-0.005-0.042-0.012-0.084-0.014-0.125 0-0.015-0.004-0.029-0.005-0.044-0.143 0.014-0.284 0.03-0.425 0.049-0.018 0.004-0.036 0.004-0.053 0.006C8.787 51.971 5 56.194 5 61.305c0 5.587 4.53 5.574 10.117 5.574h5.209 5.21c1.277 0 2.498 0 3.624-0.066-0.143-0.701-0.219-1.459-0.219-2.278C28.941 60.681 30.487 57.123 33.017 54.501z" fill="#7b68ee" data-fill-palette-color="quaternary"></path><path d="M40.376 40.217c0.007 0.093 0.015 0.185 0.023 0.277 0.62 7.015 4.724 12.435 9.695 12.435 4.971 0 9.075-5.42 9.694-12.435 0.009-0.092 0.017-0.184 0.023-0.277 0.045-0.304 0.074-0.612 0.093-0.925 0.011-0.213 0.02-0.428 0.02-0.645 0-0.533-0.038-1.058-0.112-1.57-0.719-4.97-4.796-8.778-9.718-8.778-4.922 0-9 3.809-9.719 8.778-0.074 0.513-0.112 1.037-0.112 1.57 0 0.217 0.009 0.432 0.021 0.645C40.303 39.605 40.332 39.913 40.376 40.217zM44.031 34.638c0 0 2.829 1.374 6.064 1.462 3.234-0.088 6.063-1.462 6.063-1.462 2.051 0.809 1.079 6.575 1.079 6.575 0.512-0.357 0.981-0.543 1.364-0.639-0.564 6.127-4.157 10.852-8.507 10.852-4.35 0-7.943-4.725-8.507-10.852 0.382 0.096 0.852 0.282 1.364 0.639C42.952 41.212 41.98 35.446 44.031 34.638z" fill="#7b68ee" data-fill-palette-color="quaternary"></path><path d="M58.605 51.653c-0.021-0.003-0.046-0.004-0.068-0.009-0.182-0.023-0.363-0.045-0.547-0.063 0 0.02-0.006 0.038-0.006 0.056-0.003 0.055-0.012 0.106-0.019 0.161-0.034 0.305-0.124 0.6-0.267 0.885-0.956 2.405-4.049 6.966-5.869 9.555l-0.376-5.379c0.532-0.272 0.989-0.724 1.283-1.248 0.211-0.376 0.34-0.787 0.34-1.206 0 0-1.359 0.602-2.745 0.602-0.079 0-0.158-0.002-0.237-0.006-0.079 0.004-0.158 0.006-0.237 0.006-1.387 0-2.746-0.602-2.746-0.602 0 0.419 0.129 0.83 0.34 1.206 0.293 0.524 0.75 0.976 1.282 1.248l-0.375 5.379c-1.821-2.589-4.913-7.149-5.869-9.555-0.143-0.285-0.233-0.58-0.267-0.885-0.006-0.055-0.016-0.106-0.019-0.161 0-0.018-0.005-0.036-0.006-0.056-0.184 0.018-0.366 0.039-0.547 0.063-0.022 0.005-0.046 0.006-0.068 0.009-6.327 0.88-11.196 6.312-11.196 12.881 0 7.149 5.77 7.167 12.907 7.167 0.034 0 0.067 0 0.102 0h6.698 6.698c0.033 0 0.068 0 0.101 0 7.138 0 12.907-0.016 12.907-7.167C69.801 57.965 64.932 52.533 58.605 51.653z" fill="#7b68ee" data-fill-palette-color="quaternary"></path></g></svg></g></svg></g><path d="M69.483 82.58L73.863 84.165 70.95 92.212 92.831 100.133 90.873 105.544 68.991 97.624 66.119 105.559 61.739 103.973ZM106.145 75.751L100.239 74.341 94.887 82.899 98.752 87.574 95.505 92.767 77.34 69.139 80.164 64.623 109.387 70.567ZM84.74 70.625L91.763 79.11 95.465 73.19ZM116.493 52.743V52.743C115.717 51.986 114.853 51.677 113.9 51.815 112.947 51.963 111.544 52.526 109.689 53.503 107.834 54.48 106.274 55.165 105.009 55.557V55.557C101.571 56.633 98.812 56.157 96.732 54.127V54.127C95.652 53.073 94.985 51.828 94.733 50.392 94.485 48.961 94.678 47.444 95.312 45.843 95.95 44.236 96.962 42.724 98.346 41.305V41.305C99.739 39.878 101.238 38.855 102.844 38.238 104.449 37.631 106.025 37.478 107.571 37.779 109.117 38.079 110.49 38.815 111.689 39.985V39.985L107.669 44.104C106.756 43.213 105.763 42.806 104.692 42.885 103.621 42.964 102.574 43.527 101.553 44.574V44.574C100.573 45.578 100.023 46.57 99.903 47.55 99.783 48.52 100.071 49.344 100.766 50.022V50.022C101.418 50.658 102.283 50.862 103.362 50.632 104.436 50.407 105.786 49.848 107.411 48.953V48.953C110.405 47.294 112.946 46.438 115.033 46.384 117.125 46.335 118.949 47.07 120.505 48.589V48.589C122.233 50.274 122.951 52.252 122.659 54.523 122.362 56.788 121.131 59.03 118.967 61.247V61.247C117.467 62.785 115.821 63.91 114.029 64.623 112.236 65.336 110.525 65.547 108.894 65.257 107.268 64.962 105.811 64.185 104.521 62.926V62.926L108.554 58.793C110.763 60.948 113.151 60.709 115.719 58.078V58.078C116.676 57.097 117.224 56.136 117.363 55.194 117.497 54.256 117.207 53.439 116.493 52.743ZM142.825 42.532L130.704 37.056 129.954 41.388 134.306 48.076 129.482 51.215 114.249 27.807 119.073 24.668 125.977 35.277 126.207 30.986 127.157 19.407 133.093 15.544 131.551 31.352 148.568 38.795ZM155.446 6.654L162.771 4.951 174.344 23.059 176.703 1.712 184.067 0 190.392 27.203 184.766 28.511 183.039 21.078 180.616 8.104 177.985 30.087 174.138 30.982 162.103 12.428 165.648 25.122 167.376 32.554 161.77 33.857ZM213.343 28.56L211.746 22.702 201.669 22.115 199.422 27.749 193.308 27.392 205.318 0.116 210.636 0.426 219.447 28.916ZM207.566 7.321L203.493 17.555 210.463 17.961ZM252.016 9.124L244.359 35.982 238.824 34.404 233.09 13.664 228.052 31.333 222.518 29.755 230.175 2.897 235.709 4.475 241.452 25.258 246.501 7.551ZM264.407 47.796L265.694 41.862 257.026 36.69 252.432 40.651 247.173 37.513 270.417 18.859 274.991 21.589 269.658 50.928ZM269.086 26.288L260.749 33.487 266.745 37.064ZM297.851 57.301L290.22 65.419C288.617 65.618 286.891 65.319 285.041 64.52 283.196 63.716 281.435 62.526 279.758 60.95V60.95C278 59.296 276.817 57.463 276.209 55.45 275.606 53.431 275.631 51.351 276.285 49.209 276.938 47.068 278.182 45.002 280.017 43.012V43.012L281.322 41.624C283.23 39.594 285.225 38.156 287.307 37.311 289.384 36.471 291.44 36.264 293.476 36.691 295.503 37.117 297.383 38.146 299.117 39.777V39.777C301.53 42.045 302.877 44.393 303.159 46.821 303.432 49.25 302.662 51.68 300.851 54.111V54.111L296.774 50.278C297.678 48.938 298.068 47.698 297.944 46.559 297.81 45.42 297.183 44.324 296.064 43.272V43.272C294.64 41.933 293.051 41.448 291.298 41.817 289.546 42.186 287.669 43.425 285.669 45.533V45.533L284.446 46.834C282.442 48.965 281.334 50.959 281.124 52.814 280.908 54.665 281.582 56.326 283.147 57.797V57.797C284.722 59.277 286.157 59.997 287.455 59.957V59.957L290.755 56.448 286.939 52.861 289.843 49.772ZM313.979 76.901L310.249 79.433 304.042 70.289 297.853 74.491 305.136 85.219 301.315 87.813 290.799 72.323 313.906 56.637 324.399 72.094 320.545 74.71 313.285 64.015 307.772 67.757ZM308.663 106.063L316.165 97.365 314.439 93.113 304.966 96.96 302.801 91.628 328.677 81.12 332.58 90.731C333.824 93.793 334.101 96.429 333.412 98.64 332.724 100.85 331.135 102.46 328.646 103.471V103.471C326.878 104.189 325.25 104.405 323.763 104.119 322.276 103.833 320.866 103.056 319.533 101.789V101.789L311.235 111.682 310.986 111.783ZM326.527 88.205L318.755 91.361 320.5 95.658C321.045 97.001 321.809 97.901 322.79 98.356 323.766 98.814 324.854 98.799 326.055 98.311V98.311C327.275 97.816 328.093 97.082 328.509 96.109 328.929 95.128 328.847 93.919 328.264 92.484V92.484ZM108.026 201.59L103.762 203.632 100.015 195.805 78.747 205.986 76.232 200.732 97.5 190.551 93.804 182.831 98.069 180.79ZM94.973 230.594L98.498 225.55 92.407 217.326 86.56 219.236 82.874 214.259 111.89 205.874 115.108 210.218 98.666 235.579ZM107.752 212.303L97.136 215.784 101.351 221.475ZM117.818 243.229V243.229C118.557 242.418 118.838 241.532 118.662 240.571 118.486 239.609 117.87 238.207 116.815 236.363 115.764 234.515 115.017 232.961 114.573 231.701V231.701C113.363 228.251 113.751 225.437 115.735 223.26V223.26C116.765 222.129 118.003 221.413 119.448 221.111 120.888 220.804 122.434 220.944 124.085 221.531 125.732 222.123 127.297 223.096 128.781 224.449V224.449C130.275 225.81 131.361 227.295 132.038 228.901 132.715 230.508 132.925 232.099 132.668 233.673 132.417 235.252 131.72 236.668 130.578 237.922V237.922L126.265 233.991C127.139 233.033 127.515 232.013 127.394 230.931 127.274 229.849 126.668 228.811 125.577 227.817V227.817C124.525 226.858 123.503 226.336 122.51 226.25 121.522 226.159 120.697 226.478 120.034 227.205V227.205C119.411 227.888 119.233 228.77 119.5 229.849 119.767 230.938 120.383 232.291 121.347 233.908V233.908C123.128 236.881 124.081 239.423 124.207 241.535 124.333 243.648 123.653 245.52 122.165 247.151V247.151C120.517 248.96 118.539 249.753 116.232 249.53 113.92 249.312 111.607 248.149 109.292 246.039V246.039C107.68 244.57 106.482 242.938 105.697 241.143 104.913 239.348 104.64 237.624 104.879 235.97 105.117 234.307 105.852 232.8 107.084 231.448V231.448L111.411 235.392C109.306 237.702 109.634 240.116 112.396 242.633V242.633C113.418 243.565 114.407 244.084 115.363 244.19 116.319 244.297 117.137 243.976 117.818 243.229ZM136.042 264.225L135.626 250.752 131.35 251.995 127.199 258.938 122.191 255.943 136.718 231.648 141.726 234.642 135.143 245.651 139.145 243.954 150.124 239.664 156.279 243.344 141.195 248.98 142 267.788ZM162.906 245.422L170.322 247.176 172.675 268.825 184.446 250.515 191.9 252.278 185.387 279.826 179.689 278.478 181.47 270.946 185.106 258.082 172.817 276.853 168.924 275.933 166.358 253.669 163.852 266.78 162.071 274.313 156.393 272.97ZM211.518 279.288L209.36 273.525 199.132 273.884 197.393 279.783 191.203 280 200.738 251.341 206.141 251.152 217.718 279.071ZM203.69 258.394L200.542 269.113 207.62 268.866ZM238.138 245.299L244.706 272.833 239.03 274.187 223.668 258.707 227.989 276.821 222.313 278.175 215.745 250.64 221.421 249.286 236.811 264.801 232.481 246.648ZM267.907 261.338L263.501 257.043 254.399 261.722 255.337 267.8 249.828 270.632 246.254 240.641 251.062 238.169 273.425 258.502ZM251.928 245.766L253.644 256.805 259.942 253.567ZM285.143 230.412L292.162 239.256C292.12 240.894 291.563 242.583 290.492 244.325 289.422 246.057 287.973 247.649 286.144 249.1V249.1C284.228 250.621 282.212 251.537 280.099 251.847 277.985 252.158 275.903 251.828 273.851 250.859 271.8 249.889 269.91 248.337 268.182 246.202V246.202L266.986 244.694C265.229 242.48 264.08 240.268 263.539 238.057 263.004 235.842 263.1 233.749 263.829 231.779 264.553 229.803 265.858 228.067 267.743 226.571V226.571C270.374 224.484 272.929 223.478 275.41 223.556 277.881 223.632 280.206 224.758 282.383 226.935V226.935L277.938 230.463C276.73 229.359 275.544 228.789 274.379 228.755 273.219 228.716 272.03 229.18 270.811 230.147V230.147C269.259 231.379 268.539 232.901 268.653 234.712 268.766 236.524 269.731 238.585 271.548 240.896V240.896L272.676 242.317C274.52 244.641 276.353 246.047 278.176 246.536 280.004 247.02 281.769 246.587 283.472 245.235V245.235C285.191 243.871 286.126 242.535 286.276 241.227V241.227L283.244 237.407 279.088 240.705 276.415 237.338ZM297.029 213.124L300.522 216.068 293.303 224.633 299.1 229.519 307.572 219.466 311.156 222.488 298.924 237.001 277.279 218.759 289.486 204.275 293.101 207.322 284.654 217.344 289.81 221.689ZM321.556 204.008L309.921 203.58 307.652 207.636 316.696 212.695 313.848 217.788 289.143 203.968 294.28 194.785C295.913 191.865 297.823 189.977 300.009 189.12 302.195 188.263 304.478 188.5 306.857 189.831V189.831C308.54 190.772 309.74 191.924 310.457 193.285 311.174 194.646 311.452 196.253 311.291 198.106V198.106L324.379 198.41 324.614 198.541ZM296.118 201.184L303.526 205.328 305.824 201.219C306.538 199.942 306.767 198.771 306.51 197.705 306.252 196.64 305.552 195.787 304.409 195.147V195.147C303.248 194.498 302.149 194.318 301.112 194.606 300.074 194.894 299.172 195.723 298.406 197.093V197.093ZM70.626 143.349C70.626 141.557 72.078 140.105 73.87 140.105 75.662 140.105 77.114 141.557 77.114 143.349 77.114 145.141 75.662 146.593 73.87 146.593 72.078 146.593 70.626 145.141 70.626 143.349ZM321.986 143.349C321.986 141.557 323.439 140.105 325.23 140.105 327.022 140.105 328.474 141.557 328.474 143.349 328.474 145.141 327.022 146.593 325.23 146.593 323.439 146.593 321.986 145.141 321.986 143.349Z" fill="#7b68ee" data-fill-palette-color="primary"></path></svg></g></svg></g></svg></g></svg></g><defs></defs></svg><rect width="395.52" height="280" fill="none" stroke="none" visibility="hidden"></rect></g></svg></g></svg>